<mxfile host="app.diagrams.net" modified="2022-05-25T08:22:56.259Z" agent="5.0 (Macintosh; Intel Mac OS X 10_15_7) AppleWebKit/537.36 (KHTML, like Gecko) Chrome/101.0.4951.64 Safari/537.36" etag="hd5vFfnihqVGwFrpjWzu" version="18.0.7" type="github">
  <diagram id="0YeXAfGxAzWWMeNmxQXu" name="Page-1">
    <mxGraphModel dx="2066" dy="1129" grid="1" gridSize="10" guides="1" tooltips="1" connect="1" arrows="1" fold="1" page="1" pageScale="1" pageWidth="827" pageHeight="1169" math="0" shadow="0">
      <root>
        <mxCell id="0" />
        <mxCell id="1" parent="0" />
        <mxCell id="PaKOcd6We-SKgw6j03IT-1" value="" style="group" vertex="1" connectable="0" parent="1">
          <mxGeometry x="164" y="100" width="500" height="232" as="geometry" />
        </mxCell>
        <mxCell id="PaKOcd6We-SKgw6j03IT-2" value="&lt;font style=&quot;font-size: 16px;&quot;&gt;MariaDB&lt;/font&gt;" style="shape=cylinder3;whiteSpace=wrap;html=1;boundedLbl=1;backgroundOutline=1;size=15;fillColor=#d5e8d4;strokeColor=#82b366;" vertex="1" parent="PaKOcd6We-SKgw6j03IT-1">
          <mxGeometry x="390" y="162" width="110" height="70" as="geometry" />
        </mxCell>
        <mxCell id="PaKOcd6We-SKgw6j03IT-3" value="" style="endArrow=classic;html=1;rounded=0;exitX=0;exitY=0.5;exitDx=0;exitDy=0;exitPerimeter=0;strokeColor=#3333FF;" edge="1" parent="PaKOcd6We-SKgw6j03IT-1">
          <mxGeometry width="50" height="50" relative="1" as="geometry">
            <mxPoint x="190" y="35" as="sourcePoint" />
            <mxPoint x="60" y="160" as="targetPoint" />
          </mxGeometry>
        </mxCell>
        <mxCell id="PaKOcd6We-SKgw6j03IT-4" value="" style="endArrow=classic;html=1;rounded=0;exitX=1;exitY=0.5;exitDx=0;exitDy=0;exitPerimeter=0;strokeColor=#3333FF;" edge="1" parent="PaKOcd6We-SKgw6j03IT-1">
          <mxGeometry width="50" height="50" relative="1" as="geometry">
            <mxPoint x="300" y="35" as="sourcePoint" />
            <mxPoint x="450" y="160" as="targetPoint" />
          </mxGeometry>
        </mxCell>
        <mxCell id="PaKOcd6We-SKgw6j03IT-5" value="&lt;font style=&quot;font-size: 16px;&quot;&gt;MariaDB&lt;/font&gt;" style="shape=cylinder3;whiteSpace=wrap;html=1;boundedLbl=1;backgroundOutline=1;size=15;fillColor=#d5e8d4;strokeColor=#82b366;" vertex="1" parent="PaKOcd6We-SKgw6j03IT-1">
          <mxGeometry y="162" width="110" height="70" as="geometry" />
        </mxCell>
        <mxCell id="PaKOcd6We-SKgw6j03IT-6" value="&lt;font style=&quot;font-size: 16px;&quot;&gt;MariaDB&lt;/font&gt;" style="shape=cylinder3;whiteSpace=wrap;html=1;boundedLbl=1;backgroundOutline=1;size=15;fillColor=#d5e8d4;strokeColor=#82b366;" vertex="1" parent="PaKOcd6We-SKgw6j03IT-1">
          <mxGeometry x="190" width="110" height="70" as="geometry" />
        </mxCell>
        <mxCell id="PaKOcd6We-SKgw6j03IT-7" value="" style="endArrow=classic;html=1;rounded=0;exitX=1;exitY=1;exitDx=0;exitDy=-15;exitPerimeter=0;entryX=0;entryY=1;entryDx=0;entryDy=-15;entryPerimeter=0;strokeColor=#FF00FF;" edge="1" parent="PaKOcd6We-SKgw6j03IT-1">
          <mxGeometry width="50" height="50" relative="1" as="geometry">
            <mxPoint x="110" y="215" as="sourcePoint" />
            <mxPoint x="390" y="215" as="targetPoint" />
          </mxGeometry>
        </mxCell>
        <mxCell id="PaKOcd6We-SKgw6j03IT-8" value="" style="endArrow=classic;html=1;rounded=0;entryX=1;entryY=0.5;entryDx=0;entryDy=0;entryPerimeter=0;exitX=0;exitY=0.5;exitDx=0;exitDy=0;exitPerimeter=0;strokeColor=#FF0000;" edge="1" parent="PaKOcd6We-SKgw6j03IT-1">
          <mxGeometry width="50" height="50" relative="1" as="geometry">
            <mxPoint x="390" y="190" as="sourcePoint" />
            <mxPoint x="110" y="189" as="targetPoint" />
          </mxGeometry>
        </mxCell>
        <mxCell id="PaKOcd6We-SKgw6j03IT-9" value="" style="endArrow=classic;html=1;rounded=0;entryX=0;entryY=1;entryDx=0;entryDy=-15;entryPerimeter=0;strokeColor=#FF00FF;" edge="1" parent="PaKOcd6We-SKgw6j03IT-1">
          <mxGeometry width="50" height="50" relative="1" as="geometry">
            <mxPoint x="93" y="167" as="sourcePoint" />
            <mxPoint x="203" y="62" as="targetPoint" />
          </mxGeometry>
        </mxCell>
        <mxCell id="PaKOcd6We-SKgw6j03IT-10" value="" style="endArrow=classic;html=1;rounded=0;strokeColor=#FF0000;" edge="1" parent="PaKOcd6We-SKgw6j03IT-1">
          <mxGeometry width="50" height="50" relative="1" as="geometry">
            <mxPoint x="410.8467153284673" y="165" as="sourcePoint" />
            <mxPoint x="288" y="63" as="targetPoint" />
          </mxGeometry>
        </mxCell>
      </root>
    </mxGraphModel>
  </diagram>
</mxfile>
